<svg width="378" height="78" fill="none" xmlns="http://www.w3.org/2000/svg">
  <g filter="url(#a)">
    <path fill="#2F303A" fill-opacity=".8" d="M4 0h370v70H4z"/>
    <path d="M120.247 38.4V40h-7.17v-1.6h7.17Zm-6.562 0v4.04h-1.928l-.109-4.04h2.037Zm8.039 0-.178 4.047h-1.88V38.4h2.058Zm-2.605-8.353v1.606h-4.792v-1.606h4.792Zm1.463 0V40h-2.044v-9.953h2.044Zm-6.507 0h2.05l-.266 4.054c-.041.67-.114 1.262-.219 1.777-.1.51-.223.96-.369 1.347a6.063 6.063 0 0 1-.472 1.018 4.951 4.951 0 0 1-1.128 1.313c-.196.16-.387.307-.574.444h-1.176v-1.6h.458c.132-.109.271-.26.417-.45.151-.192.292-.45.424-.773.137-.328.255-.743.356-1.244.104-.502.182-1.112.232-1.832l.267-4.054Zm15.807 8.353V40h-5.298v-1.6h5.298Zm-4.628-8.353V40h-2.05v-9.953h2.05Zm3.938 4.054v1.558h-4.608v-1.558h4.608Zm.683-4.054v1.606h-5.291v-1.606h5.291Zm7.393 6.651h2.044a3.708 3.708 0 0 1-.554 1.784c-.323.52-.777.926-1.36 1.217-.579.292-1.276.438-2.092.438-.638 0-1.21-.11-1.716-.328a3.647 3.647 0 0 1-1.298-.957 4.26 4.26 0 0 1-.814-1.504c-.187-.588-.28-1.247-.28-1.976v-.69c0-.73.095-1.388.287-1.976a4.364 4.364 0 0 1 .834-1.51c.364-.415.8-.734 1.306-.958a4.148 4.148 0 0 1 1.695-.335c.829 0 1.529.15 2.098.452a3.28 3.28 0 0 1 1.333 1.244c.319.528.511 1.13.575 1.804h-2.051c-.023-.4-.103-.74-.239-1.018a1.359 1.359 0 0 0-.622-.636c-.274-.146-.638-.219-1.094-.219-.342 0-.64.064-.896.192a1.661 1.661 0 0 0-.642.58c-.173.26-.303.589-.39.985a6.814 6.814 0 0 0-.123 1.381v.704c0 .515.039.968.116 1.36.078.388.196.716.356.985.164.264.373.465.629.601.259.133.572.199.936.199.429 0 .782-.069 1.06-.206.278-.136.49-.339.635-.608.151-.269.24-.604.267-1.005Zm5.868-6.651V40h-2.05v-9.953h2.05Zm5.866 0-3.815 5.845h-2.509l-.259-1.826h1.674l2.42-4.02h2.489ZM146.889 40l-2.789-4.45 1.422-1.463L149.323 40h-2.434ZM155 30.047V40h-2.044v-9.953H155Zm3.062 0v1.606h-8.121v-1.606h8.121Zm9.574 4.744v.472c0 .756-.103 1.435-.308 2.037a4.489 4.489 0 0 1-.868 1.538c-.374.42-.821.74-1.34.964a4.27 4.27 0 0 1-1.716.335 4.304 4.304 0 0 1-1.716-.335 3.852 3.852 0 0 1-1.34-.964 4.496 4.496 0 0 1-.881-1.538c-.206-.602-.308-1.28-.308-2.037v-.472c0-.761.102-1.44.308-2.037a4.473 4.473 0 0 1 .868-1.538 3.805 3.805 0 0 1 1.34-.97 4.296 4.296 0 0 1 1.715-.336 4.27 4.27 0 0 1 1.716.335c.52.223.966.547 1.34.97.378.425.67.937.875 1.539.21.597.315 1.276.315 2.037Zm-2.072.472v-.486c0-.528-.048-.993-.143-1.394a3.026 3.026 0 0 0-.424-1.012 1.831 1.831 0 0 0-.684-.615 1.953 1.953 0 0 0-.923-.212c-.346 0-.654.07-.922.212-.265.137-.49.342-.677.615-.183.273-.322.61-.417 1.012a6.03 6.03 0 0 0-.144 1.394v.486c0 .524.048.989.144 1.394.095.401.237.74.424 1.019.186.273.414.48.683.622.269.141.577.212.923.212.346 0 .654-.07.923-.212a1.84 1.84 0 0 0 .677-.622c.182-.278.321-.618.417-1.019.095-.405.143-.87.143-1.394Zm12.075-5.216V40h-2.05v-8.347h-3.999V40h-2.051v-9.953h8.1Zm8.849 4.054v1.6h-5.195v-1.6h5.195Zm-4.587-4.054V40h-2.05v-9.953h2.05Zm6.05 0V40h-2.044v-9.953h2.044Zm4.385 0V40h-2.044v-9.953h2.044Zm14.143 8.353V40h-7.171v-1.6h7.171Zm-6.563 0v4.04h-1.928l-.109-4.04h2.037Zm8.039 0-.178 4.047h-1.879V38.4h2.057Zm-2.604-8.353v1.606h-4.792v-1.606h4.792Zm1.463 0V40h-2.044v-9.953h2.044Zm-6.508 0h2.051l-.267 4.054c-.041.67-.114 1.262-.219 1.777-.1.51-.223.96-.369 1.347a5.985 5.985 0 0 1-.472 1.018 5.018 5.018 0 0 1-.546.752c-.192.21-.386.397-.582.56-.195.16-.387.308-.574.445h-1.176v-1.6h.459c.132-.109.271-.26.416-.45.151-.192.292-.45.424-.773.137-.328.256-.743.356-1.244a13.77 13.77 0 0 0 .232-1.832l.267-4.054Zm17.141 4.744v.472c0 .756-.103 1.435-.308 2.037a4.489 4.489 0 0 1-.868 1.538c-.374.42-.821.74-1.34.964a4.27 4.27 0 0 1-1.716.335 4.304 4.304 0 0 1-1.716-.335 3.852 3.852 0 0 1-1.34-.964 4.496 4.496 0 0 1-.881-1.538c-.205-.602-.308-1.28-.308-2.037v-.472c0-.761.103-1.44.308-2.037a4.473 4.473 0 0 1 .868-1.538 3.805 3.805 0 0 1 1.34-.97 4.296 4.296 0 0 1 1.715-.336 4.27 4.27 0 0 1 1.716.335c.52.223.966.547 1.34.97.378.425.67.937.875 1.539.21.597.315 1.276.315 2.037Zm-2.072.472v-.486c0-.528-.048-.993-.143-1.394a3.026 3.026 0 0 0-.424-1.012 1.831 1.831 0 0 0-.684-.615 1.953 1.953 0 0 0-.923-.212c-.346 0-.654.07-.922.212-.265.137-.49.342-.677.615-.182.273-.321.61-.417 1.012a6.03 6.03 0 0 0-.144 1.394v.486c0 .524.048.989.144 1.394.096.401.237.74.424 1.019.186.273.414.48.683.622.269.141.577.212.923.212.346 0 .654-.07.923-.212a1.84 1.84 0 0 0 .677-.622c.182-.278.321-.618.417-1.019.095-.405.143-.87.143-1.394Zm11.631 3.137V40h-7.171v-1.6h7.171Zm-6.562 0v4.04h-1.928l-.109-4.04h2.037Zm8.039 0-.178 4.047h-1.88V38.4h2.058Zm-2.605-8.353v1.606h-4.792v-1.606h4.792Zm1.463 0V40h-2.044v-9.953h2.044Zm-6.508 0h2.051l-.266 4.054c-.042.67-.114 1.262-.219 1.777-.101.51-.224.96-.369 1.347a6.143 6.143 0 0 1-.472 1.018 5.02 5.02 0 0 1-.547.752 5.99 5.99 0 0 1-.581.56c-.196.16-.387.308-.574.445h-1.176v-1.6h.458c.132-.109.271-.26.417-.45a3.25 3.25 0 0 0 .424-.773c.137-.328.255-.743.355-1.244.105-.502.183-1.112.233-1.832l.266-4.054Zm13.286 1.702L231.412 40h-2.181l3.698-9.953h1.388l-.198 1.702ZM236.368 40l-2.714-8.251-.219-1.702h1.401L238.555 40h-2.187Zm-.123-3.705V37.9h-5.257v-1.606h5.257Zm7.255-6.248V40h-2.043v-9.953h2.043Zm3.063 0v1.606h-8.121v-1.606h8.121Zm3.647 0V40h-2.051v-9.953h2.051Zm5.865 0-3.815 5.845h-2.508l-.26-1.826h1.675l2.419-4.02h2.489ZM253.962 40l-2.789-4.45 1.422-1.463L256.396 40h-2.434Zm5.636-3.227 3.999-6.726h2.051V40h-2.051v-6.727L259.598 40h-2.05v-9.953h2.05v6.726Z" fill="#fff"/>
  </g>
  <defs>
    <filter id="a" x="0" y="0" width="378" height="78" filterUnits="userSpaceOnUse" color-interpolation-filters="sRGB">
      <feFlood flood-opacity="0" result="BackgroundImageFix"/>
      <feColorMatrix in="SourceAlpha" values="0 0 0 0 0 0 0 0 0 0 0 0 0 0 0 0 0 0 127 0" result="hardAlpha"/>
      <feOffset dy="4"/>
      <feGaussianBlur stdDeviation="2"/>
      <feComposite in2="hardAlpha" operator="out"/>
      <feColorMatrix values="0 0 0 0 0 0 0 0 0 0 0 0 0 0 0 0 0 0 0.25 0"/>
      <feBlend in2="BackgroundImageFix" result="effect1_dropShadow_1_2265"/>
      <feBlend in="SourceGraphic" in2="effect1_dropShadow_1_2265" result="shape"/>
    </filter>
  </defs>
</svg>
