<svg width="370" height="70" fill="none" xmlns="http://www.w3.org/2000/svg">
  <path fill="#2F303A" fill-opacity=".8" d="M0 0h370v70H0z"/>
  <path d="M115.001 30.047h1.737l2.556 7.308 2.557-7.308h1.736L119.992 40h-1.395l-3.596-9.953Zm-.936 0h1.729l.315 7.123V40h-2.044v-9.953Zm8.729 0h1.737V40h-2.051v-2.83l.314-7.123Zm12.13 4.744v.472c0 .756-.102 1.435-.307 2.037a4.489 4.489 0 0 1-.868 1.538c-.374.42-.821.74-1.34.964a4.27 4.27 0 0 1-1.716.335 4.304 4.304 0 0 1-1.716-.335 3.843 3.843 0 0 1-1.34-.964 4.515 4.515 0 0 1-.882-1.538c-.205-.602-.307-1.28-.307-2.037v-.472c0-.761.102-1.44.307-2.037a4.474 4.474 0 0 1 .869-1.538 3.801 3.801 0 0 1 1.339-.97 4.304 4.304 0 0 1 1.716-.336 4.27 4.27 0 0 1 1.716.335c.52.223.966.547 1.34.97.378.425.67.937.875 1.539.209.597.314 1.276.314 2.037Zm-2.071.472v-.486a6.03 6.03 0 0 0-.144-1.394 3.025 3.025 0 0 0-.423-1.012 1.831 1.831 0 0 0-.684-.615 1.953 1.953 0 0 0-.923-.212c-.346 0-.654.07-.923.212a1.84 1.84 0 0 0-.676.615c-.183.273-.322.61-.417 1.012a6.03 6.03 0 0 0-.144 1.394v.486c0 .524.048.989.144 1.394.095.401.237.74.423 1.019.187.273.415.48.684.622.269.141.576.212.923.212.346 0 .654-.07.923-.212a1.83 1.83 0 0 0 .676-.622c.183-.278.322-.618.417-1.019.096-.405.144-.87.144-1.394Zm10.476-5.216v1.606h-4.478V40h-2.044v-9.953h6.522Zm-5.182 3.63h2.324c.784 0 1.459.13 2.024.39s1 .624 1.305 1.093c.306.47.458 1.016.458 1.64 0 .475-.086.908-.259 1.3a2.893 2.893 0 0 1-.759 1.011 3.49 3.49 0 0 1-1.19.657 4.978 4.978 0 0 1-1.579.232h-3.664v-9.953h2.058V38.4h1.606c.392 0 .716-.072.971-.218.255-.146.447-.34.574-.581.132-.246.198-.518.198-.814a1.5 1.5 0 0 0-.198-.765 1.332 1.332 0 0 0-.574-.547c-.255-.133-.579-.199-.971-.199h-2.324v-1.6Zm10.052-3.63V40h-2.044v-9.953h2.044Zm9.102 0v1.606h-4.95v-1.606h4.95Zm1.462 0V40h-2.05v-9.953h2.05Zm-6.671 0h2.043l-.252 4.997a14.522 14.522 0 0 1-.212 1.948 6.174 6.174 0 0 1-.411 1.408 2.852 2.852 0 0 1-.642.93 2.338 2.338 0 0 1-.889.513 3.987 3.987 0 0 1-1.169.157h-.506v-1.6l.26-.02c.223-.023.419-.082.588-.178.169-.096.312-.24.431-.43.123-.192.223-.436.301-.732.082-.3.145-.668.191-1.1.05-.433.084-.94.102-1.518l.165-4.375Zm10.202 3.63h2.324c.784 0 1.458.13 2.023.39.566.26 1.001.624 1.306 1.093.305.47.458 1.016.458 1.64 0 .475-.087.908-.26 1.3a2.878 2.878 0 0 1-.758 1.011 3.5 3.5 0 0 1-1.19.657 4.982 4.982 0 0 1-1.579.232h-3.664v-9.953h2.058V38.4h1.606c.392 0 .715-.072.971-.218a1.44 1.44 0 0 0 .574-.581c.132-.246.198-.518.198-.814a1.5 1.5 0 0 0-.198-.765 1.338 1.338 0 0 0-.574-.547c-.256-.133-.579-.199-.971-.199h-2.324v-1.6Zm14.481.424v1.6h-5.195v-1.6h5.195Zm-4.587-4.054V40h-2.05v-9.953h2.05Zm6.05 0V40h-2.044v-9.953h2.044Zm4.385 0V40h-2.044v-9.953h2.044Zm14.143 8.353V40h-7.171v-1.6h7.171Zm-6.563 0v4.04h-1.927l-.11-4.04h2.037Zm8.039 0-.177 4.047h-1.88V38.4h2.057Zm-2.604-8.353v1.606h-4.792v-1.606h4.792Zm1.463 0V40h-2.044v-9.953h2.044Zm-6.508 0h2.051l-.267 4.054c-.041.67-.114 1.262-.219 1.777-.1.51-.223.96-.369 1.347a5.985 5.985 0 0 1-.472 1.018 5.018 5.018 0 0 1-.546.752c-.192.21-.385.397-.581.56-.196.16-.388.308-.575.445h-1.175v-1.6h.458c.132-.109.271-.26.417-.45a3.25 3.25 0 0 0 .423-.773c.137-.328.256-.743.356-1.244a13.77 13.77 0 0 0 .232-1.832l.267-4.054Zm17.141 4.744v.472c0 .756-.103 1.435-.308 2.037a4.473 4.473 0 0 1-.868 1.538c-.374.42-.821.74-1.34.964a4.27 4.27 0 0 1-1.716.335 4.304 4.304 0 0 1-1.716-.335 3.852 3.852 0 0 1-1.34-.964 4.496 4.496 0 0 1-.881-1.538c-.205-.602-.308-1.28-.308-2.037v-.472c0-.761.103-1.44.308-2.037a4.473 4.473 0 0 1 .868-1.538 3.805 3.805 0 0 1 1.34-.97 4.296 4.296 0 0 1 1.715-.336 4.27 4.27 0 0 1 1.716.335c.52.223.966.547 1.34.97.378.425.67.937.875 1.539.21.597.315 1.276.315 2.037Zm-2.072.472v-.486c0-.528-.048-.993-.143-1.394a3.026 3.026 0 0 0-.424-1.012 1.831 1.831 0 0 0-.684-.615 1.953 1.953 0 0 0-.923-.212c-.346 0-.653.07-.922.212-.265.137-.49.342-.677.615-.182.273-.321.61-.417 1.012a6.03 6.03 0 0 0-.144 1.394v.486c0 .524.048.989.144 1.394.096.401.237.74.424 1.019.187.273.414.48.683.622.269.141.577.212.923.212.346 0 .654-.07.923-.212a1.84 1.84 0 0 0 .677-.622c.182-.278.321-.618.417-1.019.095-.405.143-.87.143-1.394Zm11.631 3.137V40h-7.171v-1.6h7.171Zm-6.562 0v4.04h-1.928l-.109-4.04h2.037Zm8.039 0-.178 4.047h-1.88V38.4h2.058Zm-2.605-8.353v1.606h-4.792v-1.606h4.792Zm1.463 0V40h-2.044v-9.953h2.044Zm-6.508 0h2.051l-.266 4.054c-.041.67-.114 1.262-.219 1.777-.1.51-.223.96-.369 1.347a6.143 6.143 0 0 1-.472 1.018 4.951 4.951 0 0 1-1.128 1.313c-.196.16-.387.307-.574.444h-1.176v-1.6h.458c.132-.109.271-.26.417-.45a3.25 3.25 0 0 0 .424-.773c.137-.328.255-.743.355-1.244.105-.502.183-1.112.233-1.832l.266-4.054Zm13.286 1.702L221.699 40h-2.181l3.698-9.953h1.388l-.198 1.702ZM226.655 40l-2.714-8.251-.219-1.702h1.401L228.842 40h-2.187Zm-.123-3.705V37.9h-5.257v-1.606h5.257Zm7.256-6.248V40h-2.044v-9.953h2.044Zm3.062 0v1.606h-8.121v-1.606h8.121Zm3.647 0V40h-2.051v-9.953h2.051Zm5.865 0-3.815 5.845h-2.508l-.26-1.826h1.675l2.42-4.02h2.488ZM244.25 40l-2.79-4.45 1.422-1.463L246.683 40h-2.433Zm5.635-3.227 3.999-6.726h2.051V40h-2.051v-6.727L249.885 40h-2.05v-9.953h2.05v6.726Z" fill="#fff"/>
</svg>
