<svg width="370" height="70" fill="none" xmlns="http://www.w3.org/2000/svg">
  <path fill="#2F303A" fill-opacity=".8" d="M0 0h370v70H0z"/>
  <path d="M103.832 38.4V40h-7.17v-1.6h7.17Zm-6.562 0v4.04h-1.928l-.11-4.04h2.038Zm8.039 0-.178 4.047h-1.88V38.4h2.058Zm-2.605-8.353v1.606h-4.792v-1.606h4.792Zm1.463 0V40h-2.044v-9.953h2.044Zm-6.508 0h2.051l-.266 4.054c-.041.67-.114 1.262-.22 1.777-.1.51-.223.96-.368 1.347a6.071 6.071 0 0 1-.472 1.018 5.006 5.006 0 0 1-.547.752c-.191.21-.385.397-.58.56-.197.16-.388.308-.575.445h-1.176v-1.6h.458c.132-.109.271-.26.417-.45a3.24 3.24 0 0 0 .424-.773 6.72 6.72 0 0 0 .355-1.244c.105-.502.183-1.112.233-1.832l.266-4.054Zm11.105 6.726 3.999-6.726h2.051V40h-2.051v-6.727L108.764 40h-2.051v-9.953h2.051v6.726Zm11.966-1.545h-1.545v-1.086h1.23c.36 0 .652-.055.875-.165.224-.113.388-.273.493-.478.104-.205.157-.447.157-.725 0-.227-.059-.437-.178-.629a1.187 1.187 0 0 0-.533-.458c-.242-.118-.549-.177-.923-.177-.282 0-.54.05-.772.15-.233.1-.417.242-.554.424a1.032 1.032 0 0 0-.205.65h-2.044c0-.438.093-.83.28-1.176.192-.351.451-.648.779-.89a3.652 3.652 0 0 1 1.149-.56 4.813 4.813 0 0 1 1.367-.191c.561 0 1.066.061 1.518.185.451.118.838.296 1.162.533.323.237.572.53.745.882.173.35.26.758.26 1.223 0 .342-.078.663-.233.964-.155.3-.376.565-.663.793a3.309 3.309 0 0 1-1.032.54 4.38 4.38 0 0 1-1.333.191Zm-1.545-.594h1.545c.542 0 1.023.057 1.442.17.424.115.782.281 1.074.5.296.218.519.49.669.813.155.32.233.686.233 1.1a2.6 2.6 0 0 1-.287 1.238c-.187.36-.454.665-.8.916-.342.25-.747.44-1.217.567a5.8 5.8 0 0 1-1.538.192c-.447 0-.891-.055-1.333-.164a4.076 4.076 0 0 1-1.203-.52 2.65 2.65 0 0 1-.861-.895c-.215-.365-.322-.802-.322-1.313h2.058c0 .242.071.463.212.663.141.196.337.354.588.472.25.114.537.17.861.17.378 0 .7-.058.964-.177.269-.118.472-.28.608-.485.142-.21.212-.44.212-.69 0-.27-.036-.497-.109-.684a1.116 1.116 0 0 0-.321-.458 1.284 1.284 0 0 0-.527-.267 2.8 2.8 0 0 0-.718-.082h-1.23v-1.066Zm10.947-2.885L127.425 40h-2.18l3.698-9.953h1.388l-.199 1.702ZM132.381 40l-2.714-8.251-.218-1.702h1.401L134.569 40h-2.188Zm-.123-3.705V37.9h-5.257v-1.606h5.257Zm5.629.478 3.999-6.726h2.051V40h-2.051v-6.727L137.887 40h-2.051v-9.953h2.051v6.726Zm2.994-9.338h1.402c0 .393-.098.741-.294 1.046a1.97 1.97 0 0 1-.82.711c-.356.169-.775.253-1.258.253-.734 0-1.315-.186-1.743-.56-.424-.374-.636-.857-.636-1.45h1.394c0 .238.073.45.219.636.15.187.406.28.766.28.355 0 .606-.093.752-.28a1.01 1.01 0 0 0 .218-.636Zm11.891 6.666v1.6h-5.195v-1.6h5.195Zm-4.587-4.054V40h-2.051v-9.953h2.051Zm6.05 0V40h-2.044v-9.953h2.044Zm8.883 8.353V40h-5.298v-1.6h5.298Zm-4.628-8.353V40h-2.051v-9.953h2.051Zm3.937 4.054v1.558h-4.607v-1.558h4.607Zm.684-4.054v1.606h-5.291v-1.606h5.291Zm5.499 6.405h-2.536v-1.6h2.536c.392 0 .711-.063.957-.19.246-.133.426-.315.54-.548.114-.232.171-.494.171-.786 0-.296-.057-.572-.171-.827a1.382 1.382 0 0 0-.54-.615c-.246-.155-.565-.233-.957-.233h-1.825V40h-2.051v-9.953h3.876c.779 0 1.447.141 2.003.424.561.278.989.663 1.285 1.155.296.492.445 1.055.445 1.689 0 .642-.149 1.198-.445 1.667-.296.47-.724.832-1.285 1.087-.556.255-1.224.383-2.003.383Zm11.337.246h2.044c-.041.67-.225 1.265-.554 1.784-.323.52-.777.926-1.36 1.217-.579.292-1.276.438-2.092.438-.638 0-1.21-.11-1.716-.328a3.655 3.655 0 0 1-1.298-.957 4.26 4.26 0 0 1-.814-1.504c-.187-.588-.28-1.247-.28-1.976v-.69c0-.73.096-1.388.287-1.976a4.364 4.364 0 0 1 .834-1.51 3.72 3.72 0 0 1 1.306-.958 4.15 4.15 0 0 1 1.695-.335c.829 0 1.529.15 2.099.452.574.3 1.018.715 1.333 1.244.319.528.51 1.13.574 1.804h-2.051c-.023-.4-.103-.74-.239-1.018a1.359 1.359 0 0 0-.622-.636c-.274-.146-.638-.219-1.094-.219-.342 0-.64.064-.896.192a1.661 1.661 0 0 0-.642.58c-.173.26-.303.589-.39.985a6.814 6.814 0 0 0-.123 1.381v.704c0 .515.039.968.116 1.36.078.388.196.716.356.985.164.264.374.465.629.601.259.133.572.199.936.199.429 0 .782-.069 1.06-.206.278-.136.49-.339.636-.608.15-.269.239-.604.266-1.005Zm5.137-3.021h2.324c.784 0 1.458.13 2.024.39.565.26 1 .624 1.305 1.093.306.47.458 1.016.458 1.64 0 .475-.086.908-.259 1.3a2.893 2.893 0 0 1-.759 1.011 3.49 3.49 0 0 1-1.19.657 4.982 4.982 0 0 1-1.579.232h-3.664v-9.953h2.058V38.4h1.606c.392 0 .716-.072.971-.218a1.44 1.44 0 0 0 .574-.581c.132-.246.198-.518.198-.814a1.5 1.5 0 0 0-.198-.765 1.338 1.338 0 0 0-.574-.547c-.255-.133-.579-.199-.971-.199h-2.324v-1.6Zm9.901-3.63V40h-2.05v-9.953h2.05Zm5.866 0-3.815 5.845h-2.509l-.259-1.826h1.674l2.42-4.02h2.489ZM198.738 40l-2.789-4.45 1.422-1.463L201.172 40h-2.434Zm5.841-9.953V40h-2.044v-9.953h2.044Zm10.123 6.405h-2.536v-1.6h2.536c.392 0 .711-.063.957-.19.247-.133.427-.315.54-.548.114-.232.171-.494.171-.786 0-.296-.057-.572-.171-.827a1.37 1.37 0 0 0-.54-.615c-.246-.155-.565-.233-.957-.233h-1.825V40h-2.051v-9.953h3.876c.78 0 1.447.141 2.003.424.561.278.989.663 1.286 1.155.296.492.444 1.055.444 1.689 0 .642-.148 1.198-.444 1.667-.297.47-.725.832-1.286 1.087-.556.255-1.223.383-2.003.383Zm7.749-6.405V40h-2.044v-9.953h2.044Zm2.32 0h2.058V38.4h2.775v-8.353h2.051V38.4h2.748v-8.353h2.044V40h-11.676v-9.953Zm20.531 8.353V40h-5.298v-1.6h5.298Zm-4.628-8.353V40h-2.05v-9.953h2.05Zm3.938 4.054v1.558h-4.608v-1.558h4.608Zm.683-4.054v1.606h-5.291v-1.606h5.291Zm8.261 4.054v1.6h-5.195v-1.6h5.195Zm-4.587-4.054V40h-2.05v-9.953h2.05Zm6.05 0V40h-2.044v-9.953h2.044Zm8.842 4.054v1.6h-5.195v-1.6h5.195Zm-4.587-4.054V40h-2.051v-9.953h2.051Zm6.05 0V40h-2.044v-9.953h2.044Zm7.495 6.337h-2.707l-.69-.287c-.78-.246-1.377-.616-1.791-1.108-.411-.492-.616-1.119-.616-1.88 0-.67.148-1.23.445-1.681.3-.456.724-.8 1.271-1.033.552-.232 1.206-.348 1.962-.348h3.473V40h-2.058v-8.347h-1.415c-.56 0-.973.14-1.237.417-.265.278-.397.672-.397 1.183 0 .374.062.681.185.923.123.237.303.414.54.533.237.114.535.17.895.17h2.133l.007 1.505Zm-1.975-.827L268.635 40h-2.221l2.215-4.443h2.215Z" fill="#fff"/>
</svg>
