<svg width="370" height="70" viewBox="0 0 370 70" fill="none" xmlns="http://www.w3.org/2000/svg">
<rect width="370" height="70" fill="#2F303A" fill-opacity="0.8"/>
<path d="M115.001 30.0469H116.738L119.294 37.3545L121.851 30.0469H123.587L119.992 40H118.597L115.001 30.0469ZM114.065 30.0469H115.794L116.109 37.1699V40H114.065V30.0469ZM122.794 30.0469H124.531V40H122.48V37.1699L122.794 30.0469ZM134.924 34.791V35.2627C134.924 36.0192 134.822 36.6982 134.617 37.2998C134.412 37.9014 134.122 38.4141 133.749 38.8379C133.375 39.2572 132.928 39.5785 132.409 39.8018C131.894 40.0251 131.322 40.1367 130.693 40.1367C130.069 40.1367 129.497 40.0251 128.977 39.8018C128.462 39.5785 128.015 39.2572 127.637 38.8379C127.259 38.4141 126.965 37.9014 126.755 37.2998C126.55 36.6982 126.448 36.0192 126.448 35.2627V34.791C126.448 34.0299 126.55 33.3509 126.755 32.7539C126.96 32.1523 127.25 31.6396 127.624 31.2158C128.002 30.792 128.448 30.4684 128.963 30.2451C129.483 30.0218 130.055 29.9102 130.679 29.9102C131.308 29.9102 131.88 30.0218 132.395 30.2451C132.915 30.4684 133.361 30.792 133.735 31.2158C134.113 31.6396 134.405 32.1523 134.61 32.7539C134.819 33.3509 134.924 34.0299 134.924 34.791ZM132.853 35.2627V34.7773C132.853 34.2487 132.805 33.7839 132.709 33.3828C132.614 32.9818 132.472 32.6445 132.286 32.3711C132.099 32.0977 131.871 31.8926 131.602 31.7559C131.333 31.6146 131.026 31.5439 130.679 31.5439C130.333 31.5439 130.025 31.6146 129.756 31.7559C129.492 31.8926 129.266 32.0977 129.08 32.3711C128.897 32.6445 128.758 32.9818 128.663 33.3828C128.567 33.7839 128.519 34.2487 128.519 34.7773V35.2627C128.519 35.7868 128.567 36.2516 128.663 36.6572C128.758 37.0583 128.9 37.3978 129.086 37.6758C129.273 37.9492 129.501 38.1566 129.77 38.2979C130.039 38.4391 130.346 38.5098 130.693 38.5098C131.039 38.5098 131.347 38.4391 131.616 38.2979C131.885 38.1566 132.11 37.9492 132.292 37.6758C132.475 37.3978 132.614 37.0583 132.709 36.6572C132.805 36.2516 132.853 35.7868 132.853 35.2627ZM143.329 30.0469V31.6533H138.851V40H136.807V30.0469H143.329ZM138.147 33.6768H140.471C141.255 33.6768 141.93 33.8066 142.495 34.0664C143.06 34.3262 143.495 34.6908 143.8 35.1602C144.106 35.6296 144.258 36.1764 144.258 36.8008C144.258 37.2747 144.172 37.7077 143.999 38.0996C143.825 38.487 143.572 38.8242 143.24 39.1113C142.912 39.3939 142.515 39.6126 142.05 39.7676C141.586 39.9225 141.059 40 140.471 40H136.807V30.0469H138.865V38.4004H140.471C140.863 38.4004 141.187 38.3275 141.442 38.1816C141.697 38.0358 141.889 37.8421 142.016 37.6006C142.148 37.3545 142.214 37.0833 142.214 36.7871C142.214 36.5046 142.148 36.2493 142.016 36.0215C141.889 35.7891 141.697 35.6068 141.442 35.4746C141.187 35.3424 140.863 35.2764 140.471 35.2764H138.147V33.6768ZM148.199 30.0469V40H146.155V30.0469H148.199ZM157.301 30.0469V31.6533H152.351V30.0469H157.301ZM158.763 30.0469V40H156.713V30.0469H158.763ZM152.092 30.0469H154.135L153.883 35.0439C153.846 35.7913 153.775 36.4408 153.671 36.9922C153.57 37.5436 153.434 38.013 153.26 38.4004C153.087 38.7832 152.873 39.0931 152.618 39.3301C152.367 39.5625 152.071 39.7334 151.729 39.8428C151.387 39.9476 150.998 40 150.56 40H150.054V38.4004L150.314 38.3799C150.537 38.3571 150.733 38.2979 150.902 38.2021C151.071 38.1064 151.214 37.9629 151.333 37.7715C151.456 37.5801 151.556 37.3363 151.634 37.04C151.716 36.7393 151.779 36.3724 151.825 35.9395C151.875 35.5065 151.909 35.0007 151.927 34.4219L152.092 30.0469ZM162.294 33.6768H164.618C165.402 33.6768 166.076 33.8066 166.641 34.0664C167.207 34.3262 167.642 34.6908 167.947 35.1602C168.252 35.6296 168.405 36.1764 168.405 36.8008C168.405 37.2747 168.318 37.7077 168.145 38.0996C167.972 38.487 167.719 38.8242 167.387 39.1113C167.058 39.3939 166.662 39.6126 166.197 39.7676C165.732 39.9225 165.206 40 164.618 40H160.954V30.0469H163.012V38.4004H164.618C165.01 38.4004 165.333 38.3275 165.589 38.1816C165.844 38.0358 166.035 37.8421 166.163 37.6006C166.295 37.3545 166.361 37.0833 166.361 36.7871C166.361 36.5046 166.295 36.2493 166.163 36.0215C166.035 35.7891 165.844 35.6068 165.589 35.4746C165.333 35.3424 165.01 35.2764 164.618 35.2764H162.294V33.6768ZM176.775 34.1006V35.7002H171.58V34.1006H176.775ZM172.188 30.0469V40H170.138V30.0469H172.188ZM178.238 30.0469V40H176.194V30.0469H178.238ZM182.623 30.0469V40H180.579V30.0469H182.623ZM196.766 38.4004V40H189.595V38.4004H196.766ZM190.203 38.4004V42.4404H188.276L188.166 38.4004H190.203ZM198.242 38.4004L198.065 42.4473H196.185V38.4004H198.242ZM195.638 30.0469V31.6533H190.846V30.0469H195.638ZM197.101 30.0469V40H195.057V30.0469H197.101ZM190.593 30.0469H192.644L192.377 34.1006C192.336 34.7705 192.263 35.363 192.158 35.8779C192.058 36.3883 191.935 36.8372 191.789 37.2246C191.648 37.612 191.491 37.9515 191.317 38.2432C191.144 38.5303 190.962 38.7809 190.771 38.9951C190.579 39.2048 190.386 39.3916 190.19 39.5557C189.994 39.7152 189.802 39.8633 189.615 40H188.44V38.4004H188.898C189.03 38.291 189.169 38.1406 189.315 37.9492C189.465 37.7578 189.606 37.5003 189.738 37.1768C189.875 36.8486 189.994 36.4339 190.094 35.9326C190.199 35.4313 190.276 34.8206 190.326 34.1006L190.593 30.0469ZM207.734 34.791V35.2627C207.734 36.0192 207.631 36.6982 207.426 37.2998C207.221 37.9014 206.932 38.4141 206.558 38.8379C206.184 39.2572 205.737 39.5785 205.218 39.8018C204.703 40.0251 204.131 40.1367 203.502 40.1367C202.878 40.1367 202.306 40.0251 201.786 39.8018C201.271 39.5785 200.825 39.2572 200.446 38.8379C200.068 38.4141 199.774 37.9014 199.565 37.2998C199.36 36.6982 199.257 36.0192 199.257 35.2627V34.791C199.257 34.0299 199.36 33.3509 199.565 32.7539C199.77 32.1523 200.059 31.6396 200.433 31.2158C200.811 30.792 201.258 30.4684 201.773 30.2451C202.292 30.0218 202.864 29.9102 203.488 29.9102C204.117 29.9102 204.689 30.0218 205.204 30.2451C205.724 30.4684 206.17 30.792 206.544 31.2158C206.922 31.6396 207.214 32.1523 207.419 32.7539C207.629 33.3509 207.734 34.0299 207.734 34.791ZM205.662 35.2627V34.7773C205.662 34.2487 205.614 33.7839 205.519 33.3828C205.423 32.9818 205.282 32.6445 205.095 32.3711C204.908 32.0977 204.68 31.8926 204.411 31.7559C204.142 31.6146 203.835 31.5439 203.488 31.5439C203.142 31.5439 202.835 31.6146 202.566 31.7559C202.301 31.8926 202.076 32.0977 201.889 32.3711C201.707 32.6445 201.568 32.9818 201.472 33.3828C201.376 33.7839 201.328 34.2487 201.328 34.7773V35.2627C201.328 35.7868 201.376 36.2516 201.472 36.6572C201.568 37.0583 201.709 37.3978 201.896 37.6758C202.083 37.9492 202.31 38.1566 202.579 38.2979C202.848 38.4391 203.156 38.5098 203.502 38.5098C203.848 38.5098 204.156 38.4391 204.425 38.2979C204.694 38.1566 204.919 37.9492 205.102 37.6758C205.284 37.3978 205.423 37.0583 205.519 36.6572C205.614 36.2516 205.662 35.7868 205.662 35.2627ZM217.293 38.4004V40H210.122V38.4004H217.293ZM210.731 38.4004V42.4404H208.803L208.694 38.4004H210.731ZM218.77 38.4004L218.592 42.4473H216.712V38.4004H218.77ZM216.165 30.0469V31.6533H211.373V30.0469H216.165ZM217.628 30.0469V40H215.584V30.0469H217.628ZM211.12 30.0469H213.171L212.905 34.1006C212.864 34.7705 212.791 35.363 212.686 35.8779C212.586 36.3883 212.463 36.8372 212.317 37.2246C212.175 37.612 212.018 37.9515 211.845 38.2432C211.672 38.5303 211.49 38.7809 211.298 38.9951C211.107 39.2048 210.913 39.3916 210.717 39.5557C210.521 39.7152 210.33 39.8633 210.143 40H208.967V38.4004H209.425C209.557 38.291 209.696 38.1406 209.842 37.9492C209.992 37.7578 210.134 37.5003 210.266 37.1768C210.403 36.8486 210.521 36.4339 210.621 35.9326C210.726 35.4313 210.804 34.8206 210.854 34.1006L211.12 30.0469ZM224.406 31.749L221.699 40H219.518L223.216 30.0469H224.604L224.406 31.749ZM226.655 40L223.941 31.749L223.722 30.0469H225.123L228.842 40H226.655ZM226.532 36.2949V37.9014H221.275V36.2949H226.532ZM233.788 30.0469V40H231.744V30.0469H233.788ZM236.85 30.0469V31.6533H228.729V30.0469H236.85ZM240.497 30.0469V40H238.446V30.0469H240.497ZM246.362 30.0469L242.547 35.8916H240.039L239.779 34.0664H241.454L243.874 30.0469H246.362ZM244.25 40L241.46 35.5498L242.882 34.0869L246.683 40H244.25ZM249.885 36.7734L253.884 30.0469H255.935V40H253.884V33.2734L249.885 40H247.835V30.0469H249.885V36.7734Z" fill="white"/>
</svg>
