<svg width="370" height="70" viewBox="0 0 370 70" fill="none" xmlns="http://www.w3.org/2000/svg">
<rect width="370" height="70" fill="#2F303A" fill-opacity="0.8"/>
<path d="M116.247 38.4004V40H109.077V38.4004H116.247ZM109.685 38.4004V42.4404H107.757L107.648 38.4004H109.685ZM117.724 38.4004L117.546 42.4473H115.666V38.4004H117.724ZM115.119 30.0469V31.6533H110.327V30.0469H115.119ZM116.582 30.0469V40H114.538V30.0469H116.582ZM110.075 30.0469H112.125L111.859 34.1006C111.818 34.7705 111.745 35.363 111.64 35.8779C111.54 36.3883 111.417 36.8372 111.271 37.2246C111.13 37.612 110.972 37.9515 110.799 38.2432C110.626 38.5303 110.444 38.7809 110.252 38.9951C110.061 39.2048 109.867 39.3916 109.671 39.5557C109.475 39.7152 109.284 39.8633 109.097 40H107.921V38.4004H108.379C108.511 38.291 108.65 38.1406 108.796 37.9492C108.947 37.7578 109.088 37.5003 109.22 37.1768C109.357 36.8486 109.475 36.4339 109.576 35.9326C109.68 35.4313 109.758 34.8206 109.808 34.1006L110.075 30.0469ZM125.882 38.4004V40H120.584V38.4004H125.882ZM121.254 30.0469V40H119.204V30.0469H121.254ZM125.192 34.1006V35.6592H120.584V34.1006H125.192ZM125.875 30.0469V31.6533H120.584V30.0469H125.875ZM133.268 36.6982H135.312C135.271 37.3682 135.086 37.9629 134.758 38.4824C134.435 39.002 133.981 39.4076 133.398 39.6992C132.819 39.9909 132.122 40.1367 131.306 40.1367C130.668 40.1367 130.096 40.0273 129.59 39.8086C129.084 39.5853 128.652 39.2663 128.292 38.8516C127.936 38.4368 127.665 37.9355 127.478 37.3477C127.291 36.7598 127.198 36.1012 127.198 35.3721V34.6816C127.198 33.9525 127.293 33.2939 127.485 32.7061C127.681 32.1136 127.959 31.61 128.319 31.1953C128.683 30.7806 129.119 30.4616 129.625 30.2383C130.13 30.015 130.695 29.9033 131.32 29.9033C132.149 29.9033 132.849 30.0537 133.418 30.3545C133.993 30.6553 134.437 31.07 134.751 31.5986C135.07 32.1273 135.262 32.7288 135.326 33.4033H133.275C133.252 33.0023 133.172 32.6628 133.036 32.3848C132.899 32.1022 132.692 31.8903 132.414 31.749C132.14 31.6032 131.776 31.5303 131.32 31.5303C130.978 31.5303 130.68 31.5941 130.424 31.7217C130.169 31.8493 129.955 32.043 129.782 32.3027C129.609 32.5625 129.479 32.8906 129.392 33.2871C129.31 33.679 129.269 34.1393 129.269 34.668V35.3721C129.269 35.887 129.308 36.3405 129.385 36.7324C129.463 37.1198 129.581 37.4479 129.741 37.7168C129.905 37.9811 130.114 38.1816 130.37 38.3184C130.629 38.4505 130.942 38.5166 131.306 38.5166C131.735 38.5166 132.088 38.4482 132.366 38.3115C132.644 38.1748 132.856 37.972 133.001 37.7031C133.152 37.4342 133.241 37.0993 133.268 36.6982ZM139.136 30.0469V40H137.086V30.0469H139.136ZM145.002 30.0469L141.187 35.8916H138.678L138.419 34.0664H140.093L142.513 30.0469H145.002ZM142.889 40L140.1 35.5498L141.522 34.0869L145.323 40H142.889ZM151 30.0469V40H148.956V30.0469H151ZM154.062 30.0469V31.6533H145.941V30.0469H154.062ZM163.636 34.791V35.2627C163.636 36.0192 163.533 36.6982 163.328 37.2998C163.123 37.9014 162.833 38.4141 162.46 38.8379C162.086 39.2572 161.639 39.5785 161.12 39.8018C160.605 40.0251 160.033 40.1367 159.404 40.1367C158.78 40.1367 158.208 40.0251 157.688 39.8018C157.173 39.5785 156.727 39.2572 156.348 38.8379C155.97 38.4141 155.676 37.9014 155.467 37.2998C155.261 36.6982 155.159 36.0192 155.159 35.2627V34.791C155.159 34.0299 155.261 33.3509 155.467 32.7539C155.672 32.1523 155.961 31.6396 156.335 31.2158C156.713 30.792 157.16 30.4684 157.675 30.2451C158.194 30.0218 158.766 29.9102 159.39 29.9102C160.019 29.9102 160.591 30.0218 161.106 30.2451C161.626 30.4684 162.072 30.792 162.446 31.2158C162.824 31.6396 163.116 32.1523 163.321 32.7539C163.531 33.3509 163.636 34.0299 163.636 34.791ZM161.564 35.2627V34.7773C161.564 34.2487 161.516 33.7839 161.421 33.3828C161.325 32.9818 161.184 32.6445 160.997 32.3711C160.81 32.0977 160.582 31.8926 160.313 31.7559C160.044 31.6146 159.737 31.5439 159.39 31.5439C159.044 31.5439 158.736 31.6146 158.468 31.7559C158.203 31.8926 157.978 32.0977 157.791 32.3711C157.608 32.6445 157.469 32.9818 157.374 33.3828C157.278 33.7839 157.23 34.2487 157.23 34.7773V35.2627C157.23 35.7868 157.278 36.2516 157.374 36.6572C157.469 37.0583 157.611 37.3978 157.798 37.6758C157.984 37.9492 158.212 38.1566 158.481 38.2979C158.75 38.4391 159.058 38.5098 159.404 38.5098C159.75 38.5098 160.058 38.4391 160.327 38.2979C160.596 38.1566 160.821 37.9492 161.004 37.6758C161.186 37.3978 161.325 37.0583 161.421 36.6572C161.516 36.2516 161.564 35.7868 161.564 35.2627ZM173.639 30.0469V40H171.589V31.6533H167.59V40H165.539V30.0469H173.639ZM182.488 34.1006V35.7002H177.293V34.1006H182.488ZM177.901 30.0469V40H175.851V30.0469H177.901ZM183.951 30.0469V40H181.907V30.0469H183.951ZM188.336 30.0469V40H186.292V30.0469H188.336ZM202.479 38.4004V40H195.308V38.4004H202.479ZM195.916 38.4004V42.4404H193.988L193.879 38.4004H195.916ZM203.955 38.4004L203.777 42.4473H201.898V38.4004H203.955ZM201.351 30.0469V31.6533H196.559V30.0469H201.351ZM202.814 30.0469V40H200.77V30.0469H202.814ZM196.306 30.0469H198.357L198.09 34.1006C198.049 34.7705 197.976 35.363 197.871 35.8779C197.771 36.3883 197.648 36.8372 197.502 37.2246C197.361 37.612 197.204 37.9515 197.03 38.2432C196.857 38.5303 196.675 38.7809 196.484 38.9951C196.292 39.2048 196.098 39.3916 195.902 39.5557C195.707 39.7152 195.515 39.8633 195.328 40H194.152V38.4004H194.611C194.743 38.291 194.882 38.1406 195.027 37.9492C195.178 37.7578 195.319 37.5003 195.451 37.1768C195.588 36.8486 195.707 36.4339 195.807 35.9326C195.912 35.4313 195.989 34.8206 196.039 34.1006L196.306 30.0469ZM213.447 34.791V35.2627C213.447 36.0192 213.344 36.6982 213.139 37.2998C212.934 37.9014 212.644 38.4141 212.271 38.8379C211.897 39.2572 211.45 39.5785 210.931 39.8018C210.416 40.0251 209.844 40.1367 209.215 40.1367C208.591 40.1367 208.019 40.0251 207.499 39.8018C206.984 39.5785 206.538 39.2572 206.159 38.8379C205.781 38.4141 205.487 37.9014 205.278 37.2998C205.073 36.6982 204.97 36.0192 204.97 35.2627V34.791C204.97 34.0299 205.073 33.3509 205.278 32.7539C205.483 32.1523 205.772 31.6396 206.146 31.2158C206.524 30.792 206.971 30.4684 207.486 30.2451C208.005 30.0218 208.577 29.9102 209.201 29.9102C209.83 29.9102 210.402 30.0218 210.917 30.2451C211.437 30.4684 211.883 30.792 212.257 31.2158C212.635 31.6396 212.927 32.1523 213.132 32.7539C213.342 33.3509 213.447 34.0299 213.447 34.791ZM211.375 35.2627V34.7773C211.375 34.2487 211.327 33.7839 211.232 33.3828C211.136 32.9818 210.995 32.6445 210.808 32.3711C210.621 32.0977 210.393 31.8926 210.124 31.7559C209.855 31.6146 209.548 31.5439 209.201 31.5439C208.855 31.5439 208.547 31.6146 208.279 31.7559C208.014 31.8926 207.789 32.0977 207.602 32.3711C207.42 32.6445 207.281 32.9818 207.185 33.3828C207.089 33.7839 207.041 34.2487 207.041 34.7773V35.2627C207.041 35.7868 207.089 36.2516 207.185 36.6572C207.281 37.0583 207.422 37.3978 207.609 37.6758C207.795 37.9492 208.023 38.1566 208.292 38.2979C208.561 38.4391 208.869 38.5098 209.215 38.5098C209.561 38.5098 209.869 38.4391 210.138 38.2979C210.407 38.1566 210.632 37.9492 210.815 37.6758C210.997 37.3978 211.136 37.0583 211.232 36.6572C211.327 36.2516 211.375 35.7868 211.375 35.2627ZM223.006 38.4004V40H215.835V38.4004H223.006ZM216.444 38.4004V42.4404H214.516L214.407 38.4004H216.444ZM224.483 38.4004L224.305 42.4473H222.425V38.4004H224.483ZM221.878 30.0469V31.6533H217.086V30.0469H221.878ZM223.341 30.0469V40H221.297V30.0469H223.341ZM216.833 30.0469H218.884L218.618 34.1006C218.576 34.7705 218.504 35.363 218.399 35.8779C218.298 36.3883 218.175 36.8372 218.03 37.2246C217.888 37.612 217.731 37.9515 217.558 38.2432C217.385 38.5303 217.202 38.7809 217.011 38.9951C216.82 39.2048 216.626 39.3916 216.43 39.5557C216.234 39.7152 216.043 39.8633 215.856 40H214.68V38.4004H215.138C215.27 38.291 215.409 38.1406 215.555 37.9492C215.705 37.7578 215.847 37.5003 215.979 37.1768C216.116 36.8486 216.234 36.4339 216.334 35.9326C216.439 35.4313 216.517 34.8206 216.567 34.1006L216.833 30.0469ZM230.119 31.749L227.412 40H225.231L228.929 30.0469H230.317L230.119 31.749ZM232.368 40L229.654 31.749L229.435 30.0469H230.836L234.555 40H232.368ZM232.245 36.2949V37.9014H226.988V36.2949H232.245ZM239.5 30.0469V40H237.457V30.0469H239.5ZM242.563 30.0469V31.6533H234.442V30.0469H242.563ZM246.21 30.0469V40H244.159V30.0469H246.21ZM252.075 30.0469L248.26 35.8916H245.752L245.492 34.0664H247.167L249.586 30.0469H252.075ZM249.962 40L247.173 35.5498L248.595 34.0869L252.396 40H249.962ZM255.598 36.7734L259.597 30.0469H261.648V40H259.597V33.2734L255.598 40H253.548V30.0469H255.598V36.7734Z" fill="white"/>
</svg>
