<svg width="370" height="70" viewBox="0 0 370 70" fill="none" xmlns="http://www.w3.org/2000/svg">
<rect width="370" height="70" fill="#2F303A" fill-opacity="0.8"/>
<path d="M103.832 38.4004V40H96.6614V38.4004H103.832ZM97.2698 38.4004V42.4404H95.342L95.2327 38.4004H97.2698ZM105.309 38.4004L105.131 42.4473H103.251V38.4004H105.309ZM102.704 30.0469V31.6533H97.9123V30.0469H102.704ZM104.167 30.0469V40H102.123V30.0469H104.167ZM97.6594 30.0469H99.7102L99.4436 34.1006C99.4026 34.7705 99.3297 35.363 99.2248 35.8779C99.1246 36.3883 99.0015 36.8372 98.8557 37.2246C98.7144 37.612 98.5572 37.9515 98.384 38.2432C98.2108 38.5303 98.0286 38.7809 97.8372 38.9951C97.6457 39.2048 97.4521 39.3916 97.2561 39.5557C97.0601 39.7152 96.8687 39.8633 96.6819 40H95.5061V38.4004H95.9641C96.0963 38.291 96.2353 38.1406 96.3811 37.9492C96.5315 37.7578 96.6728 37.5003 96.8049 37.1768C96.9416 36.8486 97.0601 36.4339 97.1604 35.9326C97.2652 35.4313 97.3427 34.8206 97.3928 34.1006L97.6594 30.0469ZM108.764 36.7734L112.763 30.0469H114.814V40H112.763V33.2734L108.764 40H106.713V30.0469H108.764V36.7734ZM120.73 35.2285H119.185V34.1416H120.415C120.775 34.1416 121.067 34.0869 121.29 33.9775C121.514 33.8636 121.678 33.7041 121.783 33.499C121.887 33.2939 121.94 33.0524 121.94 32.7744C121.94 32.5465 121.881 32.3369 121.762 32.1455C121.648 31.9541 121.47 31.8014 121.229 31.6875C120.987 31.569 120.68 31.5098 120.306 31.5098C120.024 31.5098 119.766 31.5599 119.534 31.6602C119.301 31.7604 119.117 31.9017 118.98 32.084C118.843 32.2617 118.775 32.4782 118.775 32.7334H116.731C116.731 32.2959 116.824 31.904 117.011 31.5576C117.203 31.2067 117.462 30.9105 117.79 30.6689C118.123 30.4229 118.506 30.236 118.939 30.1084C119.372 29.9808 119.828 29.917 120.306 29.917C120.867 29.917 121.372 29.9785 121.824 30.1016C122.275 30.2201 122.662 30.3978 122.986 30.6348C123.309 30.8717 123.558 31.1657 123.731 31.5166C123.904 31.8675 123.991 32.2754 123.991 32.7402C123.991 33.082 123.913 33.4033 123.758 33.7041C123.603 34.0049 123.382 34.2692 123.095 34.4971C122.808 34.7249 122.464 34.9049 122.063 35.0371C121.662 35.1647 121.218 35.2285 120.73 35.2285ZM119.185 34.6338H120.73C121.272 34.6338 121.753 34.6908 122.172 34.8047C122.596 34.9186 122.954 35.085 123.246 35.3037C123.542 35.5225 123.765 35.7936 123.915 36.1172C124.07 36.4362 124.148 36.8031 124.148 37.2178C124.148 37.6826 124.052 38.0951 123.861 38.4551C123.674 38.8151 123.407 39.1204 123.061 39.3711C122.719 39.6217 122.314 39.8109 121.844 39.9385C121.379 40.0661 120.867 40.1299 120.306 40.1299C119.859 40.1299 119.415 40.0752 118.973 39.9658C118.531 39.8519 118.13 39.6787 117.77 39.4463C117.41 39.2139 117.123 38.9154 116.909 38.5508C116.694 38.1862 116.587 37.7487 116.587 37.2383H118.645C118.645 37.4798 118.716 37.7008 118.857 37.9014C118.998 38.0973 119.194 38.2546 119.445 38.373C119.695 38.487 119.982 38.5439 120.306 38.5439C120.684 38.5439 121.006 38.4847 121.27 38.3662C121.539 38.2477 121.742 38.0859 121.878 37.8809C122.02 37.6712 122.09 37.4411 122.09 37.1904C122.09 36.9215 122.054 36.6937 121.981 36.5068C121.908 36.32 121.801 36.1673 121.66 36.0488C121.518 35.9258 121.343 35.8369 121.133 35.7822C120.928 35.7275 120.689 35.7002 120.415 35.7002H119.185V34.6338ZM130.132 31.749L127.425 40H125.245L128.943 30.0469H130.331L130.132 31.749ZM132.381 40L129.667 31.749L129.449 30.0469H130.85L134.569 40H132.381ZM132.258 36.2949V37.9014H127.001V36.2949H132.258ZM137.887 36.7734L141.886 30.0469H143.937V40H141.886V33.2734L137.887 40H135.836V30.0469H137.887V36.7734ZM140.881 27.4355H142.283C142.283 27.8275 142.185 28.1761 141.989 28.4814C141.797 28.7822 141.524 29.0192 141.169 29.1924C140.813 29.361 140.394 29.4453 139.911 29.4453C139.177 29.4453 138.596 29.2585 138.168 28.8848C137.744 28.5111 137.532 28.028 137.532 27.4355H138.926C138.926 27.6725 138.999 27.8844 139.145 28.0713C139.295 28.2581 139.551 28.3516 139.911 28.3516C140.266 28.3516 140.517 28.2581 140.663 28.0713C140.808 27.8844 140.881 27.6725 140.881 27.4355ZM152.772 34.1006V35.7002H147.577V34.1006H152.772ZM148.185 30.0469V40H146.134V30.0469H148.185ZM154.235 30.0469V40H152.191V30.0469H154.235ZM163.118 38.4004V40H157.82V38.4004H163.118ZM158.49 30.0469V40H156.439V30.0469H158.49ZM162.427 34.1006V35.6592H157.82V34.1006H162.427ZM163.111 30.0469V31.6533H157.82V30.0469H163.111ZM168.61 36.4521H166.074V34.8525H168.61C169.002 34.8525 169.321 34.7887 169.567 34.6611C169.813 34.529 169.993 34.3467 170.107 34.1143C170.221 33.8818 170.278 33.6198 170.278 33.3281C170.278 33.0319 170.221 32.7562 170.107 32.501C169.993 32.2458 169.813 32.0407 169.567 31.8857C169.321 31.7308 169.002 31.6533 168.61 31.6533H166.785V40H164.734V30.0469H168.61C169.389 30.0469 170.057 30.1882 170.613 30.4707C171.174 30.7487 171.602 31.1338 171.898 31.626C172.194 32.1182 172.343 32.681 172.343 33.3145C172.343 33.957 172.194 34.513 171.898 34.9824C171.602 35.4518 171.174 35.8141 170.613 36.0693C170.057 36.3245 169.389 36.4521 168.61 36.4521ZM179.947 36.6982H181.991C181.95 37.3682 181.766 37.9629 181.437 38.4824C181.114 39.002 180.66 39.4076 180.077 39.6992C179.498 39.9909 178.801 40.1367 177.985 40.1367C177.347 40.1367 176.775 40.0273 176.269 39.8086C175.764 39.5853 175.331 39.2663 174.971 38.8516C174.615 38.4368 174.344 37.9355 174.157 37.3477C173.97 36.7598 173.877 36.1012 173.877 35.3721V34.6816C173.877 33.9525 173.973 33.2939 174.164 32.7061C174.36 32.1136 174.638 31.61 174.998 31.1953C175.363 30.7806 175.798 30.4616 176.304 30.2383C176.809 30.015 177.375 29.9033 177.999 29.9033C178.828 29.9033 179.528 30.0537 180.098 30.3545C180.672 30.6553 181.116 31.07 181.431 31.5986C181.75 32.1273 181.941 32.7288 182.005 33.4033H179.954C179.931 33.0023 179.851 32.6628 179.715 32.3848C179.578 32.1022 179.371 31.8903 179.093 31.749C178.819 31.6032 178.455 31.5303 177.999 31.5303C177.657 31.5303 177.359 31.5941 177.103 31.7217C176.848 31.8493 176.634 32.043 176.461 32.3027C176.288 32.5625 176.158 32.8906 176.071 33.2871C175.989 33.679 175.948 34.1393 175.948 34.668V35.3721C175.948 35.887 175.987 36.3405 176.064 36.7324C176.142 37.1198 176.26 37.4479 176.42 37.7168C176.584 37.9811 176.794 38.1816 177.049 38.3184C177.308 38.4505 177.621 38.5166 177.985 38.5166C178.414 38.5166 178.767 38.4482 179.045 38.3115C179.323 38.1748 179.535 37.972 179.681 37.7031C179.831 37.4342 179.92 37.0993 179.947 36.6982ZM185.084 33.6768H187.408C188.192 33.6768 188.866 33.8066 189.432 34.0664C189.997 34.3262 190.432 34.6908 190.737 35.1602C191.043 35.6296 191.195 36.1764 191.195 36.8008C191.195 37.2747 191.109 37.7077 190.936 38.0996C190.762 38.487 190.509 38.8242 190.177 39.1113C189.849 39.3939 189.452 39.6126 188.987 39.7676C188.522 39.9225 187.996 40 187.408 40H183.744V30.0469H185.802V38.4004H187.408C187.8 38.4004 188.124 38.3275 188.379 38.1816C188.634 38.0358 188.825 37.8421 188.953 37.6006C189.085 37.3545 189.151 37.0833 189.151 36.7871C189.151 36.5046 189.085 36.2493 188.953 36.0215C188.825 35.7891 188.634 35.6068 188.379 35.4746C188.124 35.3424 187.8 35.2764 187.408 35.2764H185.084V33.6768ZM194.985 30.0469V40H192.935V30.0469H194.985ZM200.851 30.0469L197.036 35.8916H194.527L194.268 34.0664H195.942L198.362 30.0469H200.851ZM198.738 40L195.949 35.5498L197.371 34.0869L201.172 40H198.738ZM204.579 30.0469V40H202.535V30.0469H204.579ZM214.702 36.4521H212.166V34.8525H214.702C215.094 34.8525 215.413 34.7887 215.659 34.6611C215.906 34.529 216.086 34.3467 216.199 34.1143C216.313 33.8818 216.37 33.6198 216.37 33.3281C216.37 33.0319 216.313 32.7562 216.199 32.501C216.086 32.2458 215.906 32.0407 215.659 31.8857C215.413 31.7308 215.094 31.6533 214.702 31.6533H212.877V40H210.826V30.0469H214.702C215.482 30.0469 216.149 30.1882 216.705 30.4707C217.266 30.7487 217.694 31.1338 217.991 31.626C218.287 32.1182 218.435 32.681 218.435 33.3145C218.435 33.957 218.287 34.513 217.991 34.9824C217.694 35.4518 217.266 35.8141 216.705 36.0693C216.149 36.3245 215.482 36.4521 214.702 36.4521ZM222.451 30.0469V40H220.407V30.0469H222.451ZM224.771 30.0469H226.829V38.4004H229.604V30.0469H231.655V38.4004H234.403V30.0469H236.447V40H224.771V30.0469ZM245.302 38.4004V40H240.004V38.4004H245.302ZM240.674 30.0469V40H238.624V30.0469H240.674ZM244.612 34.1006V35.6592H240.004V34.1006H244.612ZM245.295 30.0469V31.6533H240.004V30.0469H245.295ZM253.556 34.1006V35.7002H248.361V34.1006H253.556ZM248.969 30.0469V40H246.919V30.0469H248.969ZM255.019 30.0469V40H252.975V30.0469H255.019ZM263.861 34.1006V35.7002H258.666V34.1006H263.861ZM259.274 30.0469V40H257.223V30.0469H259.274ZM265.324 30.0469V40H263.28V30.0469H265.324ZM272.819 36.3838H270.112L269.422 36.0967C268.642 35.8506 268.045 35.4814 267.631 34.9893C267.22 34.4971 267.015 33.8704 267.015 33.1094C267.015 32.4395 267.163 31.8789 267.46 31.4277C267.76 30.972 268.184 30.6279 268.731 30.3955C269.283 30.1631 269.937 30.0469 270.693 30.0469H274.166V40H272.108V31.6533H270.693C270.133 31.6533 269.72 31.7923 269.456 32.0703C269.191 32.3483 269.059 32.7425 269.059 33.2529C269.059 33.6266 269.121 33.9342 269.244 34.1758C269.367 34.4128 269.547 34.5905 269.784 34.709C270.021 34.8229 270.319 34.8799 270.679 34.8799H272.812L272.819 36.3838ZM270.844 35.5566L268.635 40H266.414L268.629 35.5566H270.844Z" fill="white"/>
</svg>
